<svg width="20" height="20" viewBox="0 0 20 20" fill="none" xmlns="http://www.w3.org/2000/svg">
<path d="M9.16699 14.1663H5.83366C4.68088 14.1663 3.69838 13.76 2.88616 12.9472C2.07394 12.1344 1.66755 11.1519 1.66699 9.99967C1.66699 8.8469 2.07338 7.8644 2.88616 7.05217C3.69894 6.23995 4.68144 5.83356 5.83366 5.83301H9.16699V7.49967H5.83366C5.13921 7.49967 4.54894 7.74273 4.06283 8.22884C3.57671 8.71495 3.33366 9.30523 3.33366 9.99967C3.33366 10.6941 3.57671 11.2844 4.06283 11.7705C4.54894 12.2566 5.13921 12.4997 5.83366 12.4997H9.16699V14.1663ZM6.66699 10.833V9.16634H13.3337V10.833H6.66699ZM10.8337 14.1663V12.4997H14.167C14.8614 12.4997 15.4517 12.2566 15.9378 11.7705C16.4239 11.2844 16.667 10.6941 16.667 9.99967C16.667 9.30523 16.4239 8.71495 15.9378 8.22884C15.4517 7.74273 14.8614 7.49967 14.167 7.49967H10.8337V5.83301H14.167C15.3198 5.83301 16.3025 6.2394 17.1153 7.05217C17.9281 7.86495 18.3342 8.84745 18.3337 9.99967C18.3337 11.1525 17.9273 12.1352 17.1145 12.948C16.3017 13.7608 15.3192 14.1669 14.167 14.1663H10.8337Z" fill="#7DA0CA"/>
</svg>
