<svg width="29" height="38" viewBox="0 0 29 38" fill="none" xmlns="http://www.w3.org/2000/svg">
<path d="M28.3456 6.27516V36.0523C28.3456 36.758 27.7698 37.3337 27.0639 37.3337H3.43601C2.73014 37.3337 2.1543 36.758 2.1543 36.0523V1.94833C2.1543 1.24267 2.73014 0.666992 3.43601 0.666992H22.7266L28.3456 6.27516Z" fill="#DD4E43"/>
<path d="M28.3477 6.27516V36.0523C28.3477 36.758 27.7718 37.3337 27.066 37.3337H25.2363C25.9421 37.3337 26.518 36.758 26.518 36.0523V6.27516L20.9082 0.666992H22.7379L28.3477 6.27516Z" fill="#DD4E43"/>
<path d="M28.3447 6.27516H24.0073C23.3014 6.27516 22.7256 5.69949 22.7256 4.99383V0.666992L28.3447 6.27516Z" fill="#F55B4B"/>
<path d="M22.9331 18.0308H7.71979C7.20896 18.0308 6.79102 17.613 6.79102 17.1023C6.79102 16.5917 7.20896 16.1738 7.71979 16.1738H22.9331C23.4439 16.1738 23.8618 16.5917 23.8618 17.1023C23.8618 17.6223 23.4532 18.0308 22.9331 18.0308Z" fill="white"/>
<path d="M22.9331 22.7935H7.71979C7.20896 22.7935 6.79102 22.3757 6.79102 21.865C6.79102 21.3544 7.20896 20.9365 7.71979 20.9365H22.9331C23.4439 20.9365 23.8618 21.3544 23.8618 21.865C23.8618 22.385 23.4532 22.7935 22.9331 22.7935Z" fill="white"/>
<path d="M22.9331 27.5562H7.71979C7.20896 27.5562 6.79102 27.1384 6.79102 26.6277C6.79102 26.117 7.20896 25.6992 7.71979 25.6992H22.9331C23.4439 25.6992 23.8618 26.117 23.8618 26.6277C23.8618 27.1477 23.4532 27.5562 22.9331 27.5562Z" fill="white"/>
<path d="M12.8635 13.2022H0V7.99327C0 7.6033 0.315778 7.27832 0.715149 7.27832H12.8635C13.2536 7.27832 13.5786 7.59401 13.5786 7.99327V12.4872C13.5786 12.8772 13.2629 13.2022 12.8635 13.2022Z" fill="#F55B4B"/>
<path d="M13.5786 12.3944V12.4872C13.5786 12.8772 13.2629 13.2022 12.8635 13.2022H0V7.99327C0 7.6033 0.315778 7.27832 0.715149 7.27832H1.07737V9.13533C1.07737 10.9366 2.53554 12.4037 4.34665 12.4037H13.5786V12.3944Z" fill="#DD4E43"/>
<path d="M0 13.2021L2.15475 15.6534V13.2021H0Z" fill="#DB1B1B"/>
<path d="M3.48117 11.3629V11.985H1.54004V11.3629H2.01371V8.92093H1.54004V8.29883H3.48117C3.93627 8.29883 4.27992 8.40096 4.53068 8.61452C4.78145 8.82808 4.90219 9.11591 4.90219 9.46874C4.90219 9.67302 4.85575 9.85872 4.77216 10.0258C4.68857 10.193 4.57712 10.323 4.43781 10.4065C4.29849 10.4994 4.14989 10.5551 3.97342 10.5922C3.79695 10.6294 3.58334 10.6387 3.32328 10.6387H2.97035V11.3536H3.48117V11.3629ZM2.97035 10.0258H3.10966C3.43473 10.0258 3.64835 9.97014 3.74123 9.868C3.83411 9.76587 3.88054 9.62659 3.88054 9.46874C3.88054 9.33875 3.84339 9.21805 3.77838 9.1252C3.71336 9.03235 3.63906 8.97664 3.55547 8.94878C3.47188 8.93021 3.33257 8.91164 3.13753 8.91164H2.96106V10.0258H2.97035Z" fill="white"/>
<path d="M5.12402 11.985V11.3629H5.68129V8.92093H5.12402V8.29883H6.87012C7.24163 8.29883 7.52954 8.3174 7.76174 8.36382C7.98464 8.41025 8.19826 8.51238 8.40259 8.66094C8.60692 8.81879 8.7741 9.02306 8.89484 9.28304C9.01558 9.54303 9.08059 9.83086 9.08059 10.1466C9.08059 10.4065 9.03415 10.6479 8.95056 10.8801C8.86697 11.1122 8.75552 11.2979 8.62549 11.4465C8.49546 11.5857 8.34686 11.7064 8.16111 11.79C7.98464 11.8736 7.81746 11.9293 7.66886 11.9571C7.52026 11.985 7.28806 11.9943 6.97228 11.9943H5.12402V11.985ZM6.64721 11.3629H6.8794C7.15804 11.3629 7.38094 11.3258 7.54812 11.2515C7.7153 11.1772 7.84533 11.0472 7.93821 10.8708C8.04037 10.6851 8.08681 10.453 8.08681 10.1558C8.08681 9.87729 8.04037 9.63588 7.93821 9.44089C7.83604 9.2459 7.70601 9.10663 7.52954 9.03235C7.36236 8.95807 7.13946 8.92093 6.8794 8.92093H6.64721V11.3629Z" fill="white"/>
<path d="M9.50879 11.985V11.3629H10.0382V8.92093H9.50879V8.29883H12.8152V9.44089H12.1093V8.93021H11.0041V9.78444H11.8029V10.4065H11.0041V11.3629H11.5707V11.985H9.50879Z" fill="white"/>
<path d="M11.4508 14.9292H2.16309V13.2021H12.909V13.4807C12.8997 14.2792 12.2495 14.9292 11.4508 14.9292Z" fill="white"/>
</svg>
