<svg width="80" height="80" viewBox="0 0 80 80" fill="none" xmlns="http://www.w3.org/2000/svg">
<path d="M40 10C43.9397 10 47.8407 10.776 51.4805 12.2836C55.1203 13.7913 58.4274 16.001 61.2132 18.7868C63.999 21.5726 66.2087 24.8797 67.7164 28.5195C69.224 32.1593 70 36.0603 70 40C70 43.9397 69.224 47.8407 67.7164 51.4805C66.2087 55.1203 63.999 58.4274 61.2132 61.2132C58.4274 63.999 55.1203 66.2087 51.4805 67.7164C47.8407 69.224 43.9397 70 40 70C32.0435 70 24.4129 66.8393 18.7868 61.2132C13.1607 55.5871 10 47.9565 10 40C10 32.0435 13.1607 24.4129 18.7868 18.7868C24.4129 13.1607 32.0435 10 40 10ZM40 15C33.3696 15 27.0107 17.6339 22.3223 22.3223C17.6339 27.0107 15 33.3696 15 40C15 46.6304 17.6339 52.9893 22.3223 57.6777C27.0107 62.3661 33.3696 65 40 65C46.6304 65 52.9893 62.3661 57.6777 57.6777C62.3661 52.9893 65 46.6304 65 40C65 33.3696 62.3661 27.0107 57.6777 22.3223C52.9893 17.6339 46.6304 15 40 15ZM36.25 45.21L50.6 30.82C51.0401 30.3754 51.6309 30.1119 52.2558 30.0816C52.8807 30.0513 53.4943 30.2565 53.9753 30.6565C54.4563 31.0565 54.7699 31.6224 54.8541 32.2423C54.9382 32.8622 54.7869 33.4912 54.43 34.005L54.14 34.355L38.02 50.515C37.607 50.9299 37.0614 51.1867 36.4785 51.2406C35.8955 51.2945 35.3121 51.1421 34.83 50.81L34.48 50.52L25.73 41.77C25.2871 41.3291 25.0254 40.7382 24.9965 40.1139C24.9676 39.4896 25.1736 38.8771 25.5739 38.3971C25.9742 37.9171 26.5397 37.6045 27.1591 37.5208C27.7784 37.4371 28.4067 37.5885 28.92 37.945L29.27 38.23L36.25 45.21Z" fill="#052659"/>
</svg>
