<svg width="249" height="235" viewBox="0 0 249 235" fill="none" xmlns="http://www.w3.org/2000/svg">
<path d="M105.994 14.634L6.16886 159.589C-7.42564 179.336 4.62088 206.465 28.3765 209.641L211.873 234.071C237.335 237.465 256.288 211.05 244.896 188.009L161.226 18.6429C150.37 -3.32665 119.886 -5.52957 105.994 14.6538V14.634Z" fill="#052659"/>
<path d="M32.7415 196.644C26.0733 195.751 20.2584 191.543 17.2219 185.391C14.1855 179.239 14.5229 172.412 18.1547 167.133L118.238 21.8203C121.87 16.5413 128.022 13.9415 134.69 14.8147C141.359 15.7078 147.173 19.9151 150.21 26.0674L234.099 195.87C237.135 202.022 236.798 208.849 233.166 214.128C229.534 219.407 223.382 222.007 216.714 221.134L32.7415 196.644Z" fill="white"/>
<path d="M126.178 66.1959L137.867 67.7439C145.389 68.7362 151.164 75.5831 150.787 83.0055L150.013 98.2472C149.993 98.8029 149.914 99.3586 149.814 99.9143L141.499 145.858C140.308 152.486 134.255 156.753 127.388 155.84C120.502 154.927 114.965 149.073 114.489 142.206L111.115 94.7344C111.075 94.1788 111.075 93.6429 111.115 93.0872L111.909 77.8257C112.286 70.3834 118.696 65.1838 126.218 66.1761L126.178 66.1959ZM125.245 168.522L128.44 168.939C135.168 169.832 140.328 175.944 139.991 182.593C139.653 189.241 133.918 193.905 127.19 193.012L123.995 192.595C117.267 191.702 112.107 185.589 112.444 178.941C112.782 172.293 118.517 167.629 125.245 168.522Z" fill="#052659"/>
</svg>
