<svg width="146" height="143" viewBox="0 0 146 143" fill="none" xmlns="http://www.w3.org/2000/svg">
<path d="M28.8707 14.8038L1.46342 118.737C-2.1684 132.491 9.83842 145.311 23.81 142.592L130.125 121.853C145.069 118.936 150.904 100.677 140.425 89.6431L61.5174 6.44866C51.1181 -4.52618 32.7209 0.197152 28.8509 14.8038H28.8707Z" fill="#052659"/>
<path d="M23.6108 134.179C19.7409 134.934 15.732 133.584 12.8543 130.548C9.97664 127.531 8.86526 123.463 9.85756 119.672L37.3443 15.4607C38.3366 11.69 41.2539 8.9711 45.104 8.21695C48.974 7.4628 52.9829 8.81233 55.8606 11.8488L134.967 95.2615C137.844 98.2781 138.956 102.346 137.963 106.137C136.971 109.908 134.054 112.627 130.204 113.381L23.6108 134.179Z" fill="white"/>
<path d="M50.2844 39.9494L57.0519 38.6198C61.3981 37.7664 65.923 40.6639 67.1336 45.0896L69.6342 54.1592C69.7334 54.4966 69.793 54.8339 69.8525 55.1713L74.0797 83.6702C74.695 87.7783 72.1547 91.43 68.1855 92.2238C64.1964 92.9978 60.0089 90.6361 58.4212 86.7066L47.4266 59.5573C47.3075 59.2398 47.1884 58.9222 47.109 58.6047L44.6084 49.5152C43.3978 45.0896 45.9381 40.8227 50.2844 39.9693V39.9494ZM69.4358 100.043L71.2814 99.6859C75.1713 98.9317 79.2198 101.512 80.3114 105.481C81.4029 109.43 79.1206 113.261 75.2308 114.015L73.3851 114.372C69.4953 115.126 65.4467 112.546 64.3552 108.577C63.2637 104.628 65.546 100.797 69.4358 100.043Z" fill="#052659"/>
</svg>
