<svg width="492" height="317" viewBox="0 0 492 317" fill="none" xmlns="http://www.w3.org/2000/svg">
<path d="M5.24251 133.923C4.8059 133.923 4.42883 133.586 4.40898 133.149L0.0031692 80.1602C-0.0365228 79.7038 0.300858 79.287 0.777162 79.2473C1.21377 79.2076 1.6504 79.545 1.69009 80.0213L6.09589 133.01C6.13558 133.467 5.7982 133.883 5.3219 133.923C5.30205 133.923 5.2822 133.923 5.24251 133.923Z" fill="#052659"/>
<path d="M7.86169 165.397C7.42508 165.397 7.04801 165.06 7.02816 164.623L5.69848 148.587C5.65879 148.131 5.99617 147.714 6.47247 147.674C6.90909 147.615 7.3457 147.972 7.38539 148.448L8.71507 164.484C8.75476 164.94 8.41738 165.357 7.94107 165.397C7.92123 165.397 7.90138 165.397 7.86169 165.397Z" fill="#052659"/>
<path d="M454.338 316.188H44.558C34.0992 316.188 24.8311 307.634 23.9579 297.175L0.876976 19.7879C0.00375199 9.32902 7.84292 0.775391 18.3018 0.775391H428.062C438.521 0.775391 447.789 9.32902 448.662 19.7879L471.743 297.175C472.616 307.634 464.777 316.188 454.318 316.188H454.338Z" fill="white"/>
<path d="M454.339 316.98H44.5595C33.6839 316.98 24.0784 308.129 23.1853 297.253L0.104432 19.8658C-0.33218 14.567 1.33489 9.58562 4.80794 5.81488C8.26114 2.06398 13.0639 0 18.3231 0H428.083C438.959 0 448.564 8.85132 449.457 19.7468L472.538 297.134C472.975 302.433 471.308 307.414 467.835 311.185C464.382 314.936 459.579 317 454.32 317L454.339 316.98ZM18.3231 1.56784C13.5005 1.56784 9.11451 3.4532 5.95899 6.86671C2.80348 10.3001 1.27535 14.8646 1.67227 19.7071L24.7531 297.095C25.5867 307.176 34.4777 315.373 44.5595 315.373H454.32C459.142 315.373 463.528 313.487 466.684 310.074C469.839 306.64 471.367 302.076 470.97 297.233L447.89 19.846C447.056 9.76423 438.165 1.56784 428.083 1.56784H18.3231Z" fill="#052659"/>
<path d="M428.081 0.775391H18.3203C7.86147 0.775391 0.0223066 9.32902 0.89553 19.7879H448.681C447.807 9.32902 438.539 0.775391 428.081 0.775391Z" fill="#052659"/>
<path d="M27.9066 10.28C28.0852 12.5424 26.4182 14.3881 24.1557 14.3881C21.8933 14.3881 19.9087 12.5623 19.7102 10.28C19.5117 7.99771 21.1986 6.17188 23.4611 6.17188C25.7235 6.17188 27.7081 7.99771 27.9066 10.28Z" fill="white"/>
<path d="M44.5785 10.28C44.7571 12.5424 43.09 14.3881 40.8276 14.3881C38.5651 14.3881 36.5805 12.5623 36.3821 10.28C36.1836 7.99771 37.8705 6.17188 40.133 6.17188C42.3954 6.17188 44.38 7.99771 44.5785 10.28Z" fill="white"/>
<path d="M61.2474 10.28C61.426 12.5424 59.759 14.3881 57.4965 14.3881C55.2341 14.3881 53.2495 12.5623 53.051 10.28C52.8526 8.01755 54.5395 6.17188 56.8019 6.17188C59.0644 6.17188 61.049 7.99771 61.2474 10.28Z" fill="white"/>
<path d="M418.772 279.829H74.0668C65.7513 279.829 58.3885 273.022 57.6939 264.726L41.5988 71.2473C40.9042 62.9319 47.1358 56.1445 55.4513 56.1445H400.137C408.452 56.1445 415.815 62.9517 416.509 71.2473L432.605 264.726C433.299 273.041 427.068 279.829 418.752 279.829H418.772Z" fill="#F0F0F0"/>
<path opacity="0.1" d="M312.161 90.0037L205.37 218.566C190.723 236.209 199.991 263.081 222.417 267.943L395.613 305.412C419.528 310.592 439.513 286.936 430.423 264.212L364.018 98.1803C355.425 76.6871 326.966 72.2018 312.161 90.0037Z" fill="#263238"/>
<path opacity="0.1" d="M74.4854 108.045L37.294 208.208C32.3325 221.564 43.0692 235.516 57.2591 234.127L165.876 223.47C181.098 221.981 188.62 204.199 179.074 192.232L107.648 102.727C98.2807 90.9977 79.7049 93.9746 74.4854 108.045Z" fill="#263238"/>
<path d="M348.994 57.634L249.169 202.589C235.574 222.336 247.621 249.465 271.377 252.641L454.873 277.071C480.335 280.465 499.288 254.05 487.896 231.009L404.226 61.6429C393.37 39.6734 362.886 37.4704 348.994 57.6538V57.634Z" fill="#052659"/>
<path d="M275.742 239.644C269.073 238.751 263.258 234.543 260.222 228.391C257.185 222.239 257.523 215.412 261.155 210.133L361.238 64.8203C364.87 59.5413 371.022 56.9415 377.69 57.8147C384.359 58.7078 390.173 62.9151 393.21 69.0674L477.099 238.87C480.135 245.022 479.798 251.849 476.166 257.128C472.534 262.407 466.382 265.007 459.714 264.134L275.742 239.644Z" fill="white"/>
<path d="M369.178 109.196L380.867 110.744C388.389 111.736 394.164 118.583 393.787 126.005L393.013 141.247C392.993 141.803 392.914 142.359 392.814 142.914L384.499 188.858C383.308 195.486 377.255 199.753 370.388 198.84C363.502 197.927 357.965 192.073 357.489 185.206L354.115 137.734C354.075 137.179 354.075 136.643 354.115 136.087L354.909 120.826C355.286 113.383 361.696 108.184 369.218 109.176L369.178 109.196ZM368.245 211.522L371.44 211.939C378.168 212.832 383.328 218.944 382.991 225.593C382.653 232.241 376.918 236.905 370.19 236.012L366.995 235.595C360.267 234.702 355.107 228.589 355.444 221.941C355.782 215.293 361.517 210.629 368.245 211.522Z" fill="#052659"/>
<path d="M112.871 79.8038L85.4634 183.737C81.8316 197.491 93.8384 210.311 107.81 207.592L214.125 186.853C229.069 183.936 234.904 165.677 224.425 154.643L145.517 71.4487C135.118 60.4738 116.721 65.1972 112.851 79.8038H112.871Z" fill="#052659"/>
<path d="M107.611 199.179C103.741 199.934 99.732 198.584 96.8543 195.548C93.9766 192.531 92.8653 188.463 93.8576 184.672L121.344 80.4607C122.337 76.69 125.254 73.9711 129.104 73.217C132.974 72.4628 136.983 73.8123 139.861 76.8488L218.967 160.261C221.844 163.278 222.956 167.346 221.963 171.137C220.971 174.908 218.054 177.627 214.204 178.381L107.611 199.179Z" fill="white"/>
<path d="M134.284 104.949L141.052 103.62C145.398 102.766 149.923 105.664 151.134 110.09L153.634 119.159C153.733 119.497 153.793 119.834 153.853 120.171L158.08 148.67C158.695 152.778 156.155 156.43 152.185 157.224C148.196 157.998 144.009 155.636 142.421 151.707L131.427 124.557C131.308 124.24 131.188 123.922 131.109 123.605L128.608 114.515C127.398 110.09 129.938 105.823 134.284 104.969V104.949ZM153.436 165.043L155.281 164.686C159.171 163.932 163.22 166.512 164.311 170.481C165.403 174.43 163.121 178.261 159.231 179.015L157.385 179.372C153.495 180.126 149.447 177.546 148.355 173.577C147.264 169.628 149.546 165.797 153.436 165.043Z" fill="#052659"/>
</svg>
