<svg width="20" height="20" viewBox="0 0 20 20" fill="none" xmlns="http://www.w3.org/2000/svg">
<path d="M14.3497 8.12435H7.46644C6.99977 8.12435 6.53311 7.96603 6.16644 7.66603L4.34144 6.20769C3.84144 5.80769 3.55811 5.21602 3.55811 4.58268C3.55811 3.94935 3.84144 3.34934 4.34144 2.95767L6.16644 1.49934C6.53311 1.20767 6.99977 1.04102 7.46644 1.04102H14.3497C15.4997 1.04102 16.4331 1.97435 16.4331 3.12435V6.04102C16.4331 7.19102 15.4997 8.12435 14.3497 8.12435ZM7.46644 2.29102C7.27477 2.29102 7.09144 2.35768 6.94978 2.47435L5.12478 3.93268C4.92478 4.09102 4.80811 4.33268 4.80811 4.58268C4.80811 4.83268 4.92478 5.07435 5.12478 5.23268L6.94978 6.69101C7.09978 6.80768 7.28311 6.87435 7.46644 6.87435H14.3497C14.8081 6.87435 15.1831 6.49935 15.1831 6.04102V3.12435C15.1831 2.66602 14.8081 2.29102 14.3497 2.29102H7.46644Z" fill="#052659"/>
<path d="M12.5497 16.4583H5.66634C4.51634 16.4583 3.58301 15.525 3.58301 14.375V11.4583C3.58301 10.3083 4.51634 9.375 5.66634 9.375H12.5497C13.0247 9.375 13.483 9.53332 13.8497 9.83332L15.6747 11.2917C16.1747 11.6917 16.458 12.2833 16.458 12.9167C16.458 13.55 16.1747 14.15 15.6747 14.5417L13.8497 16C13.483 16.3 13.0247 16.4583 12.5497 16.4583ZM5.66634 10.625C5.20801 10.625 4.83301 11 4.83301 11.4583V14.375C4.83301 14.8333 5.20801 15.2083 5.66634 15.2083H12.5497C12.7413 15.2083 12.9247 15.1417 13.0663 15.025L14.8913 13.5667C15.0913 13.4083 15.208 13.1667 15.208 12.9167C15.208 12.6667 15.0913 12.425 14.8913 12.2667L13.0663 10.8083C12.9163 10.6917 12.733 10.625 12.5497 10.625H5.66634Z" fill="#052659"/>
<path d="M10 10.625C9.65833 10.625 9.375 10.3417 9.375 10V7.5C9.375 7.15833 9.65833 6.875 10 6.875C10.3417 6.875 10.625 7.15833 10.625 7.5V10C10.625 10.3417 10.3417 10.625 10 10.625Z" fill="#052659"/>
<path d="M10 18.959C9.65833 18.959 9.375 18.6757 9.375 18.334V15.834C9.375 15.4923 9.65833 15.209 10 15.209C10.3417 15.209 10.625 15.4923 10.625 15.834V18.334C10.625 18.6757 10.3417 18.959 10 18.959Z" fill="#052659"/>
<path d="M12.5 18.959H7.5C7.15833 18.959 6.875 18.6757 6.875 18.334C6.875 17.9923 7.15833 17.709 7.5 17.709H12.5C12.8417 17.709 13.125 17.9923 13.125 18.334C13.125 18.6757 12.8417 18.959 12.5 18.959Z" fill="#052659"/>
</svg>
