<svg width="11" height="15" viewBox="0 0 11 15" fill="none" xmlns="http://www.w3.org/2000/svg">
<g clip-path="url(#clip0_2291_235)">
<path d="M3.49072 10.8063C3.90285 11.3315 4.27795 11.8847 4.61329 12.462C4.89961 13.0049 5.01897 13.373 5.22821 14.0272C5.35654 14.3886 5.47252 14.4965 5.72188 14.4965C5.9936 14.4965 6.11688 14.313 6.21212 14.0292C6.40991 13.4114 6.56511 12.9399 6.80996 12.4945C7.29043 11.6344 7.88745 10.8702 8.47407 10.1356C8.63287 9.92776 9.65965 8.71666 10.1219 7.76106C10.1219 7.76106 10.69 6.71133 10.69 5.24529C10.69 3.87395 10.1297 2.92285 10.1297 2.92285L8.51662 3.35486L7.53698 5.93504L7.29462 6.29082L7.24616 6.35528L7.18171 6.43596L7.06856 6.56483L6.90688 6.72648L6.03452 7.43719L3.85353 8.69647L3.49072 10.8063Z" fill="#34A853"/>
<path d="M1.23975 7.58476C1.77204 8.80059 2.79851 9.86938 3.49299 10.8073L7.18172 6.43781C7.18172 6.43781 6.66205 7.11746 5.71937 7.11746C4.66934 7.11746 3.82105 6.27896 3.82105 5.22167C3.82105 4.49663 4.25725 3.99854 4.25725 3.99854L1.75325 4.66949L1.23975 7.58476Z" fill="#FBBC04"/>
<path d="M7.22306 0.474609C8.44817 0.86961 9.49677 1.69887 10.131 2.92169L7.18299 6.4348C7.18299 6.4348 7.61919 5.9277 7.61919 5.20716C7.61919 4.12525 6.70816 3.317 5.72398 3.317C4.7933 3.317 4.25879 3.99552 4.25879 3.99552V1.78231L7.22306 0.474609Z" fill="#4285F4"/>
<path d="M1.91504 2.02698C2.64676 1.15152 3.93431 0.25 5.70938 0.25C6.5706 0.25 7.21942 0.476097 7.21942 0.476097L4.25542 3.99756H2.15539L1.91504 2.02698Z" fill="#1A73E8"/>
<path d="M1.2397 7.58424C1.2397 7.58424 0.75 6.62526 0.75 5.23598C0.75 3.92292 1.26044 2.77516 1.91543 2.02686L4.25748 3.99774L1.2397 7.58424Z" fill="#EA4335"/>
</g>
<defs>
<clipPath id="clip0_2291_235">
<rect width="9.94005" height="14.25" fill="white" transform="translate(0.75 0.25)"/>
</clipPath>
</defs>
</svg>
