<svg width="20" height="20" viewBox="0 0 20 20" fill="none" xmlns="http://www.w3.org/2000/svg">
<path d="M9.1665 14.1663H5.83317C4.68039 14.1663 3.69789 13.76 2.88567 12.9472C2.07345 12.1344 1.66706 11.1519 1.6665 9.99967C1.6665 8.8469 2.07289 7.8644 2.88567 7.05217C3.69845 6.23995 4.68095 5.83356 5.83317 5.83301H9.1665V7.49967H5.83317C5.13873 7.49967 4.54845 7.74273 4.06234 8.22884C3.57623 8.71495 3.33317 9.30523 3.33317 9.99967C3.33317 10.6941 3.57623 11.2844 4.06234 11.7705C4.54845 12.2566 5.13873 12.4997 5.83317 12.4997H9.1665V14.1663ZM6.6665 10.833V9.16634H13.3332V10.833H6.6665ZM10.8332 14.1663V12.4997H14.1665C14.8609 12.4997 15.4512 12.2566 15.9373 11.7705C16.4234 11.2844 16.6665 10.6941 16.6665 9.99967C16.6665 9.30523 16.4234 8.71495 15.9373 8.22884C15.4512 7.74273 14.8609 7.49967 14.1665 7.49967H10.8332V5.83301H14.1665C15.3193 5.83301 16.3021 6.2394 17.1148 7.05217C17.9276 7.86495 18.3337 8.84745 18.3332 9.99967C18.3332 11.1525 17.9268 12.1352 17.114 12.948C16.3012 13.7608 15.3187 14.1669 14.1665 14.1663H10.8332Z" fill="#7DA0CA"/>
</svg>
