<svg width="24" height="24" viewBox="0 0 24 24" fill="none" xmlns="http://www.w3.org/2000/svg">
<path d="M12 21.25H7C3.35 21.25 1.25 19.15 1.25 15.5V8.5C1.25 4.85 3.35 2.75 7 2.75H17C20.65 2.75 22.75 4.85 22.75 8.5V11.5C22.75 11.91 22.41 12.25 22 12.25C21.59 12.25 21.25 11.91 21.25 11.5V8.5C21.25 5.64 19.86 4.25 17 4.25H7C4.14 4.25 2.75 5.64 2.75 8.5V15.5C2.75 18.36 4.14 19.75 7 19.75H12C12.41 19.75 12.75 20.09 12.75 20.5C12.75 20.91 12.41 21.25 12 21.25Z" fill="#7DA0CA"/>
<path d="M11.9998 12.87C11.1598 12.87 10.3098 12.61 9.65978 12.08L6.52978 9.57996C6.20978 9.31996 6.14978 8.84997 6.40978 8.52997C6.66978 8.20997 7.13977 8.15997 7.45977 8.40997L10.5898 10.91C11.3498 11.52 12.6398 11.52 13.3998 10.91L16.5298 8.40997C16.8498 8.14997 17.3198 8.19997 17.5798 8.52997C17.8398 8.84997 17.7898 9.32996 17.4598 9.57996L14.3298 12.08C13.6898 12.61 12.8398 12.87 11.9998 12.87Z" fill="#7DA0CA"/>
<path d="M15.8196 21.7806C15.4396 21.7806 15.0796 21.6406 14.8196 21.3806C14.5096 21.0706 14.3696 20.6206 14.4396 20.1506L14.6296 18.8006C14.6796 18.4506 14.8896 18.0306 15.1396 17.7806L18.6796 14.2406C19.1596 13.7606 19.6296 13.5106 20.1396 13.4606C20.7596 13.4006 21.3796 13.6606 21.9596 14.2406C22.5396 14.8206 22.7996 15.4306 22.7396 16.0606C22.6896 16.5606 22.4296 17.0406 21.9596 17.5206L18.4196 21.0606C18.1696 21.3106 17.7496 21.5206 17.3996 21.5706L16.0495 21.7606C15.9695 21.7706 15.8996 21.7806 15.8196 21.7806ZM20.3096 14.9506C20.2996 14.9506 20.2896 14.9506 20.2796 14.9506C20.1396 14.9606 19.9496 15.0906 19.7396 15.3006L16.1996 18.8406C16.1696 18.8706 16.1196 18.9706 16.1196 19.0106L15.9396 20.2606L17.1896 20.0806C17.2296 20.0706 17.3295 20.0206 17.3595 19.9906L20.8996 16.4506C21.1096 16.2306 21.2396 16.0506 21.2496 15.9106C21.2696 15.7106 21.0696 15.4706 20.8996 15.3006C20.7396 15.1406 20.5096 14.9506 20.3096 14.9506Z" fill="#7DA0CA"/>
<path d="M20.9206 18.249C20.8506 18.249 20.7806 18.239 20.7206 18.219C19.4006 17.849 18.3506 16.799 17.9806 15.479C17.8706 15.079 18.1006 14.6689 18.5006 14.5489C18.9006 14.4389 19.3106 14.669 19.4206 15.069C19.6506 15.889 20.3006 16.5389 21.1206 16.7689C21.5206 16.8789 21.7506 17.299 21.6406 17.699C21.5506 18.029 21.2506 18.249 20.9206 18.249Z" fill="#7DA0CA"/>
</svg>
